HIERARCHY
ROOT hip
{
	OFFSET 0.000000 0.000000 0.000000 
	CHANNELS 6 Xposition Yposition Zposition Xrotation Zrotation Yrotation
	JOINT abdomen
	{
		OFFSET 0.000000 3.402643 0.000000 
		CHANNELS 3 Xrotation Zrotation Yrotation
		JOINT chest
		{
			OFFSET 0.000000 8.438565 -0.680529 
			CHANNELS 3 Xrotation Zrotation Yrotation
			JOINT neck
			{
				OFFSET 0.000000 10.207942 -0.272212 
				CHANNELS 3 Xrotation Zrotation Yrotation
				JOINT head
				{
					OFFSET 0.000000 3.130431 0.000000 
					CHANNELS 3 Xrotation Zrotation Yrotation
					End Site
					{
						OFFSET 0.000000 3.130435 0.000000 
					}
				}
			}
			JOINT lCollar
			{
				OFFSET 3.470700 6.669187 -0.816635 
				CHANNELS 3 Yrotation Zrotation Xrotation
				JOINT lShldr
				{
					OFFSET 3.198488 0.000000 0.000000 
					CHANNELS 3 Zrotation Yrotation Xrotation
					JOINT lForeArm
					{
						OFFSET 10.139888 0.000000 0.000000 
						CHANNELS 3 Yrotation Zrotation Xrotation
						JOINT lHand
						{
							OFFSET 8.370511 0.000000 0.000000 
							CHANNELS 3 Zrotation Yrotation Xrotation
							End Site
							{
								OFFSET 4.083176 0.000000 0.000000 
							}
						}
					}
				}
			}
			JOINT rCollar
			{
				OFFSET -3.470700 6.669187 -0.816635 
				CHANNELS 3 Yrotation Zrotation Xrotation
				JOINT rShldr
				{
					OFFSET -3.198488 0.000000 0.000000 
					CHANNELS 3 Zrotation Yrotation Xrotation
					JOINT rForeArm
					{
						OFFSET -10.139888 0.000000 0.000000 
						CHANNELS 3 Yrotation Zrotation Xrotation
						JOINT rHand
						{
							OFFSET -8.370511 0.000000 0.000000 
							CHANNELS 3 Zrotation Yrotation Xrotation
							End Site
							{
								OFFSET -4.083176 0.000000 0.000000 
							}
						}
					}
				}
			}
		}
	}
	JOINT lThigh
	{
		OFFSET 5.308129 -1.633274 1.361059 
		CHANNELS 3 Xrotation Zrotation Yrotation
		JOINT lShin
		{
			OFFSET -2.041588 -20.007561 0.000000 
			CHANNELS 3 Xrotation Zrotation Yrotation
			JOINT lFoot
			{
				OFFSET 0.000000 -19.190928 -1.224953 
				CHANNELS 3 Xrotation Yrotation Zrotation
				End Site
				{
					OFFSET 0.000000 -2.449906 4.627600 
				}
			}
		}
	}
	JOINT rThigh
	{
		OFFSET -5.308129 -1.633274 1.361059 
		CHANNELS 3 Xrotation Zrotation Yrotation
		JOINT rShin
		{
			OFFSET 2.041588 -20.007561 0.000000 
			CHANNELS 3 Xrotation Zrotation Yrotation
			JOINT rFoot
			{
				OFFSET 0.000000 -19.190928 -1.224953 
				CHANNELS 3 Xrotation Yrotation Zrotation
				End Site
				{
					OFFSET 0.000000 -2.449906 4.627600 
				}
			}
		}
	}
}
MOTION
Frames: 8
Frame Time: 0.033333
1.029232 40.767078 3.052201 -5.507905 0.136719 -0.039062 64.285538 -1.152343 0.078109 -50.003567 -1.835868 -0.498417 -8.544920 -0.009766 -0.009767 -19.284569 -2.904965 -21.191015 1.992188 -2.001953 0.000341 18.503183 54.799938 17.674784 -72.566856 -0.504753 8.794359 -8.955896 -40.012066 -139.357620 -2.001953 1.992188 0.000000 -2.315970 -38.170185 19.359388 67.541496 0.507451 8.742443 18.125193 -27.208107 -98.421417 -42.634418 7.929148 -0.922780 116.924263 4.292457 -3.582271 60.807487 -3.225603 2.624098 -5.572025 -9.437014 2.704703 77.218216 -1.649760 4.111638 27.948067 6.881905 3.415395 
0.966604 39.384773 2.989573 -3.632882 0.136719 -0.029297 66.580727 -1.093749 0.068347 -50.827389 -1.972655 -0.078415 -8.544920 -0.009766 -0.009767 -9.759699 1.702422 -21.992521 1.992188 -2.001953 0.000341 15.857553 49.663151 13.188128 -55.406979 -0.561953 8.626179 -8.263413 -40.415730 -140.982788 -2.001953 1.992188 0.000000 -5.504007 -43.710014 20.161135 57.532822 0.527000 8.641559 17.641611 -26.302696 -99.152519 -31.288582 8.173512 -0.160221 120.951820 4.506227 -3.456081 52.272751 -2.581825 2.506083 10.649592 -10.072056 1.052471 80.685341 -1.934563 4.145329 33.704147 6.704250 0.740148 
0.903977 38.002499 2.926946 -1.757859 0.136719 -0.019531 68.885468 -1.044921 0.068348 -51.653156 -2.099572 0.341925 -8.544920 -0.009766 -0.009767 -0.252700 6.386471 -22.027603 1.992188 -2.001953 0.000341 14.037519 44.429276 9.463385 -38.256622 -0.660123 8.478009 -7.542477 -40.800861 -142.629395 -2.001953 1.992188 0.000000 -9.135986 -49.207611 21.506882 47.519634 0.579391 8.548713 17.139835 -25.400887 -99.892372 -19.926298 8.249784 0.634292 124.991249 4.712190 -3.308646 43.702515 -1.910277 2.520543 26.931341 -10.223573 -0.676351 84.145058 -2.179179 4.152334 39.428101 6.233659 -1.890399 
0.861480 36.555351 2.884449 -0.107468 0.136719 -0.019531 71.083641 -1.005859 0.019528 -50.417088 -2.128841 0.449272 -8.544920 -0.009766 -0.009767 9.934160 11.096223 -19.837717 1.992188 -2.001953 0.000341 9.504351 43.106537 4.244072 -15.425339 -0.844516 8.331785 -8.263413 -40.415730 -140.982788 -2.001953 1.992188 0.000000 -3.407168 -51.824646 15.466975 35.035446 0.660443 8.448236 17.641611 -26.302696 -99.152519 -6.109318 7.982955 1.603532 120.961815 4.486664 -3.460919 33.748291 -1.614087 2.231920 41.058044 -9.998938 -2.135838 83.443832 -2.101118 4.167783 37.603355 5.271036 -2.650447 
0.818985 35.108292 2.841954 1.552711 0.136719 -0.009766 73.271820 -0.976563 -0.019695 -49.190899 -2.158101 0.556981 -8.544920 -0.009766 -0.009767 20.483805 15.347201 -16.786085 1.992188 -2.001953 0.000341 5.268728 41.494350 -0.696465 7.408829 -1.069578 8.265851 -8.955896 -40.012066 -139.357620 -2.001953 1.992188 0.000000 3.084081 -54.017376 8.678944 22.555605 0.753295 8.364526 18.125193 -27.208107 -98.421417 7.691845 7.507432 2.454185 116.944038 4.225296 -3.620386 23.806946 -1.260778 1.998810 55.170063 -9.413665 -3.512963 82.733551 -2.032963 4.153901 35.755245 4.339322 -3.449093 
0.794381 33.535831 2.817350 3.212867 0.136719 -0.009766 75.304039 -0.957030 -0.078277 -46.638962 -2.138597 0.478547 -8.544920 -0.009766 -0.009767 19.852251 16.380957 -15.731886 1.992188 -2.001953 0.000341 1.487358 40.191299 -6.625874 18.602238 -1.178652 8.272248 -8.955896 -40.012066 -139.357620 -2.001953 1.992188 0.000000 9.280933 -53.171982 0.940477 6.441339 0.902717 8.286764 18.125193 -27.208107 -98.421417 17.155567 7.108592 2.996167 105.555298 3.514426 -3.959386 26.219440 -1.318819 2.049212 59.572411 -9.149970 -3.913430 78.718964 -1.739899 4.135685 33.681000 4.424936 -3.304210 
0.769779 31.963432 2.792748 4.873047 0.136719 0.000000 77.326477 -0.947263 -0.136862 -44.087017 -2.109324 0.400479 -8.544920 -0.009766 -0.009767 19.233742 17.427542 -14.680829 1.992188 -2.001953 0.000341 -2.013361 38.604500 -12.309543 29.786789 -1.300862 8.291461 -8.955896 -40.012066 -139.357620 -2.001953 1.992188 0.000000 15.049226 -51.864674 -6.382058 -9.669000 1.071241 8.257068 18.125193 -27.208107 -98.421417 26.591862 6.610576 3.443667 94.179382 2.734914 -4.173570 28.631207 -1.366293 2.054796 63.970528 -8.866984 -4.286719 74.685425 -1.456723 4.084002 31.623083 4.521800 -3.174382 
0.763068 30.321701 2.786037 6.738281 0.146484 0.000025 79.124481 -0.947259 -0.205212 -40.973763 -2.041004 0.195189 -8.544920 -0.009766 -0.009767 17.075251 17.996868 -13.801453 1.992188 -2.001953 0.000341 -5.189972 36.682030 -18.144604 32.992432 -1.327186 8.308981 -8.955896 -40.012066 -139.357620 -2.001953 1.992188 0.000000 19.985819 -48.471783 -13.264905 -18.570116 1.169750 8.254946 18.125193 -27.208107 -98.421417 36.170258 6.064932 3.829260 79.177444 1.671062 -4.226496 33.845005 -1.573775 2.151013 66.281136 -8.710369 -4.495134 69.033714 -1.074767 4.000053 28.631556 4.944242 -2.679159 
